<svg width="35" height="32" viewBox="0 0 35 32" fill="none" xmlns="http://www.w3.org/2000/svg">
<g clip-path="url(#clip0_2_5487)">
<path d="M0.928711 10.8649C0.928711 9.39788 1.51148 7.99095 2.54882 6.95361C3.58617 5.91627 4.9931 5.3335 6.46013 5.3335H27.5801C29.0471 5.3335 30.454 5.91627 31.4914 6.95361C32.5287 7.99095 33.1115 9.39788 33.1115 10.8649V21.9277C33.1115 23.3947 32.5287 24.8017 31.4914 25.839C30.454 26.8764 29.0471 27.4591 27.5801 27.4591H6.46013C4.9931 27.4591 3.58617 26.8764 2.54882 25.839C1.51148 24.8017 0.928711 23.3947 0.928711 21.9277V10.8649ZM11.2795 13.6728L9.98012 14.9742L8.68074 13.6728C8.49189 13.484 8.23576 13.3779 7.96869 13.3779C7.70162 13.3779 7.44549 13.484 7.25665 13.6728C7.0678 13.8617 6.96171 14.1178 6.96171 14.3849C6.96171 14.652 7.0678 14.9081 7.25665 15.0969L8.55804 16.3963L7.25665 17.6957C7.0678 17.8845 6.96171 18.1407 6.96171 18.4077C6.96171 18.6748 7.0678 18.9309 7.25665 19.1198C7.44549 19.3086 7.70162 19.4147 7.96869 19.4147C8.23576 19.4147 8.49189 19.3086 8.68074 19.1198L9.98012 17.8184L11.2795 19.1198C11.4683 19.3086 11.7245 19.4147 11.9915 19.4147C12.2586 19.4147 12.5147 19.3086 12.7036 19.1198C12.8924 18.9309 12.9985 18.6748 12.9985 18.4077C12.9985 18.1407 12.8924 17.8845 12.7036 17.6957L11.4022 16.3963L12.7036 15.0969C12.7971 15.0034 12.8713 14.8924 12.9219 14.7702C12.9725 14.6481 12.9985 14.5171 12.9985 14.3849C12.9985 14.2527 12.9725 14.1217 12.9219 13.9995C12.8713 13.8774 12.7971 13.7664 12.7036 13.6728C12.6101 13.5793 12.4991 13.5052 12.3769 13.4546C12.2547 13.404 12.1238 13.3779 11.9915 13.3779C11.8593 13.3779 11.7284 13.404 11.6062 13.4546C11.484 13.5052 11.373 13.5793 11.2795 13.6728ZM19.3252 13.6728L18.0258 14.9742L16.7264 13.6728C16.5376 13.484 16.2815 13.3779 16.0144 13.3779C15.7473 13.3779 15.4912 13.484 15.3023 13.6728C15.1135 13.8617 15.0074 14.1178 15.0074 14.3849C15.0074 14.652 15.1135 14.9081 15.3023 15.0969L16.6037 16.3963L15.3023 17.6957C15.1135 17.8845 15.0074 18.1407 15.0074 18.4077C15.0074 18.6748 15.1135 18.9309 15.3023 19.1198C15.4912 19.3086 15.7473 19.4147 16.0144 19.4147C16.2815 19.4147 16.5376 19.3086 16.7264 19.1198L18.0258 17.8184L19.3252 19.1198C19.514 19.3086 19.7702 19.4147 20.0372 19.4147C20.3043 19.4147 20.5604 19.3086 20.7493 19.1198C20.9381 18.9309 21.0442 18.6748 21.0442 18.4077C21.0442 18.1407 20.9381 17.8845 20.7493 17.6957L19.4479 16.3963L20.7493 15.0969C20.9381 14.9081 21.0442 14.652 21.0442 14.3849C21.0442 14.1178 20.9381 13.8617 20.7493 13.6728C20.5604 13.484 20.3043 13.3779 20.0372 13.3779C19.7702 13.3779 19.514 13.484 19.3252 13.6728ZM23.0544 18.4077C23.0544 18.6745 23.1603 18.9303 23.3489 19.1189C23.5375 19.3075 23.7934 19.4134 24.0601 19.4134H28.0829C28.3497 19.4134 28.6055 19.3075 28.7941 19.1189C28.9827 18.9303 29.0886 18.6745 29.0886 18.4077C29.0886 18.141 28.9827 17.8852 28.7941 17.6966C28.6055 17.508 28.3497 17.402 28.0829 17.402H24.0601C23.7934 17.402 23.5375 17.508 23.3489 17.6966C23.1603 17.8852 23.0544 18.141 23.0544 18.4077Z" fill="#666666"/>
</g>
<defs>
<clipPath id="clip0_2_5487">
<rect width="34.2857" height="32" fill="white" transform="translate(0.69043)"/>
</clipPath>
</defs>
</svg>
