<svg width="286" height="39" viewBox="0 0 286 39" fill="none" xmlns="http://www.w3.org/2000/svg">
<path d="M12.0563 25.2841L10.6896 24.5031L15.8148 15.6195L17.1815 16.4005L21.4768 8.93242V0H20.5494L0 35.632L0.439299 36.413L8.20025 31.9224L12.0563 25.2841Z" fill="#20934E"/>
<path d="M9.22482 33.7284L1.46387 38.219L1.95198 39H13.2273L16.3512 37.194H29.579L32.7029 39H43.0509L43.539 38.219L35.778 33.7284H9.22482Z" fill="#20934E"/>
<path d="M23.5273 0V8.93242L27.6275 16.01L28.9942 15.229L34.1193 24.1126L32.7526 24.8936L36.8039 31.9224L44.5649 36.413L45.0042 35.632L24.4548 0H23.5273Z" fill="#20934E"/>
<path d="M61.3941 15.4703C61.3941 14.3192 61.6947 13.3056 62.296 12.4294C62.8974 11.536 63.722 10.8402 64.77 10.3419C65.8352 9.82652 67.0465 9.56882 68.4037 9.56882C69.7782 9.56882 70.9636 9.80934 71.9601 10.2904C72.9566 10.7715 73.7211 11.4501 74.2537 12.3263C74.8035 13.2025 75.0784 14.2419 75.0784 15.4446H70.9293C70.9293 14.7745 70.6973 14.2505 70.2334 13.8725C69.7696 13.4774 69.1425 13.2798 68.3522 13.2798C67.5103 13.2798 66.8317 13.4602 66.3163 13.821C65.818 14.1818 65.5689 14.68 65.5689 15.3157C65.5689 15.8998 65.7236 16.3465 66.0328 16.6558C66.3421 16.965 66.8317 17.1884 67.5017 17.3258L70.3623 17.9186C72.0632 18.2622 73.3259 18.8635 74.1506 19.7225C74.9753 20.5644 75.3876 21.7412 75.3876 23.2531C75.3876 24.4729 75.0869 25.5467 74.4856 26.4745C73.8843 27.385 73.0339 28.0894 71.9343 28.5877C70.8519 29.0859 69.5806 29.335 68.1202 29.335C66.7114 29.335 65.4744 29.0945 64.4092 28.6134C63.3612 28.1324 62.5452 27.4538 61.961 26.5775C61.3941 25.6842 61.1106 24.6447 61.1106 23.4593H65.2597C65.2597 24.1465 65.5088 24.6791 66.007 25.0571C66.5053 25.435 67.2183 25.624 68.146 25.624C69.0909 25.624 69.8383 25.4522 70.3881 25.1086C70.9378 24.7478 71.2127 24.2668 71.2127 23.6654C71.2127 23.1328 71.0753 22.7205 70.8004 22.4284C70.5427 22.1364 70.096 21.9302 69.4603 21.8099L66.5482 21.2172C64.8473 20.8736 63.5588 20.2207 62.6826 19.2586C61.8236 18.2965 61.3941 17.0338 61.3941 15.4703ZM83.6439 29.335C82.3554 29.335 81.2043 29.043 80.1906 28.4588C79.1942 27.8747 78.4039 27.0758 77.8197 26.0621C77.2528 25.0313 76.9693 23.8544 76.9693 22.5315C76.9693 21.1914 77.2442 20.0146 77.794 19.0009C78.3609 17.9701 79.1426 17.1626 80.1391 16.5785C81.1356 15.9943 82.2781 15.7023 83.5666 15.7023C84.9239 15.7023 86.0922 15.9857 87.0714 16.5527C88.0507 17.1025 88.8067 17.8928 89.3393 18.9236C89.8719 19.9373 90.1382 21.1485 90.1382 22.5573V23.5624L79.0567 23.6139L79.1083 21.1657H86.1952C86.1952 20.4785 85.9633 19.9373 85.4994 19.5421C85.0355 19.1298 84.3999 18.9236 83.5924 18.9236C82.9223 18.9236 82.3726 19.0525 81.9431 19.3102C81.5307 19.5679 81.2215 19.9716 81.0153 20.5214C80.8091 21.054 80.7061 21.7412 80.7061 22.5831C80.7061 23.7857 80.9466 24.6791 81.4276 25.2632C81.9259 25.8302 82.6904 26.1137 83.7212 26.1137C84.4772 26.1137 85.1043 25.9848 85.6025 25.7271C86.1007 25.4694 86.4186 25.1086 86.556 24.6447H90.1897C89.9664 26.0707 89.262 27.2132 88.0765 28.0723C86.891 28.9141 85.4135 29.335 83.6439 29.335ZM91.7925 22.5058C91.7925 21.1829 92.076 20.0146 92.643 19.0009C93.2099 17.9701 93.983 17.1626 94.9623 16.5785C95.9588 15.9943 97.1013 15.7023 98.3899 15.7023C100.297 15.7023 101.843 16.1919 103.029 17.1712C104.214 18.1505 104.867 19.482 104.987 21.1657H100.993C100.855 20.5128 100.58 20.0318 100.168 19.7225C99.7729 19.4133 99.2317 19.2586 98.5445 19.2586C97.9947 19.2586 97.5051 19.3961 97.0755 19.671C96.6632 19.9287 96.3454 20.2981 96.122 20.7791C95.8987 21.2602 95.787 21.8357 95.787 22.5058C95.787 23.193 95.8901 23.7857 96.0963 24.2839C96.3196 24.765 96.6289 25.1344 97.024 25.3921C97.4363 25.6498 97.926 25.7786 98.4929 25.7786C99.1973 25.7786 99.7557 25.624 100.168 25.3148C100.598 24.9883 100.872 24.5073 100.993 23.8716H104.987C104.901 24.954 104.566 25.9075 103.982 26.7322C103.415 27.5397 102.659 28.1753 101.714 28.6392C100.769 29.1031 99.6956 29.335 98.4929 29.335C97.1357 29.335 95.9502 29.0515 94.9366 28.4846C93.9401 27.9176 93.167 27.1273 92.6172 26.1137C92.0674 25.0828 91.7925 23.8802 91.7925 22.5058ZM115.716 16.1146H119.685V29H115.948L115.691 27.5568C115.296 28.0894 114.729 28.5189 113.99 28.8454C113.268 29.1718 112.521 29.335 111.748 29.335C110.287 29.335 109.128 28.8797 108.269 27.9692C107.427 27.0414 107.006 25.7872 107.006 24.2066V16.1146H110.975V22.7635C110.975 23.8115 111.164 24.5846 111.542 25.0828C111.92 25.5639 112.512 25.8044 113.32 25.8044C114.179 25.8044 114.789 25.5725 115.15 25.1086C115.528 24.6276 115.716 23.863 115.716 22.815V16.1146ZM131.528 16.1146V19.8514H130.266C129.132 19.8514 128.238 20.1263 127.586 20.676C126.95 21.2258 126.632 22.1364 126.632 23.4077V29H122.663V16.1404H126.4L126.709 18.8978H126.349C126.52 18.0388 126.907 17.3344 127.508 16.7846C128.127 16.2177 128.96 15.9342 130.008 15.9342C130.249 15.9342 130.489 15.9514 130.73 15.9857C130.987 16.0029 131.254 16.0459 131.528 16.1146ZM139.137 29.335C137.848 29.335 136.697 29.043 135.683 28.4588C134.687 27.8747 133.897 27.0758 133.313 26.0621C132.746 25.0313 132.462 23.8544 132.462 22.5315C132.462 21.1914 132.737 20.0146 133.287 19.0009C133.854 17.9701 134.635 17.1626 135.632 16.5785C136.628 15.9943 137.771 15.7023 139.059 15.7023C140.417 15.7023 141.585 15.9857 142.564 16.5527C143.544 17.1025 144.299 17.8928 144.832 18.9236C145.365 19.9373 145.631 21.1485 145.631 22.5573V23.5624L134.55 23.6139L134.601 21.1657H141.688C141.688 20.4785 141.456 19.9373 140.992 19.5421C140.528 19.1298 139.893 18.9236 139.085 18.9236C138.415 18.9236 137.865 19.0525 137.436 19.3102C137.024 19.5679 136.714 19.9716 136.508 20.5214C136.302 21.054 136.199 21.7412 136.199 22.5831C136.199 23.7857 136.439 24.6791 136.92 25.2632C137.419 25.8302 138.183 26.1137 139.214 26.1137C139.97 26.1137 140.597 25.9848 141.095 25.7271C141.594 25.4694 141.911 25.1086 142.049 24.6447H145.682C145.459 26.0707 144.755 27.2132 143.569 28.0723C142.384 28.9141 140.906 29.335 139.137 29.335ZM159.466 9.92961V29H155.291V9.92961H159.466ZM163.022 22.6604H158.435V18.9494H162.094C163.108 18.9494 163.864 18.7346 164.362 18.3051C164.861 17.8584 165.11 17.1884 165.11 16.295C165.11 15.4016 164.861 14.7402 164.362 14.3106C163.864 13.8639 163.108 13.6406 162.094 13.6406H158.435V9.92961H163.022C164.328 9.92961 165.462 10.1959 166.424 10.7285C167.403 11.2611 168.159 12.0085 168.692 12.9706C169.242 13.9155 169.516 15.0236 169.516 16.295C169.516 17.5664 169.242 18.6831 168.692 19.6452C168.159 20.5901 167.403 21.3289 166.424 21.8615C165.462 22.3941 164.328 22.6604 163.022 22.6604ZM175.051 29.335C173.694 29.335 172.612 28.9656 171.804 28.2269C171.014 27.4709 170.619 26.4659 170.619 25.2117C170.619 24.0262 171.022 23.0813 171.83 22.3769C172.654 21.6725 173.84 21.2602 175.386 21.1399L178.994 20.8564V20.6503C178.994 20.2207 178.908 19.8685 178.736 19.5937C178.565 19.3016 178.315 19.0868 177.989 18.9494C177.68 18.7948 177.285 18.7174 176.804 18.7174C175.962 18.7174 175.317 18.8721 174.871 19.1813C174.441 19.4906 174.226 19.9373 174.226 20.5214H170.928C170.928 19.5421 171.177 18.6917 171.675 17.9701C172.173 17.2485 172.878 16.6901 173.788 16.295C174.716 15.8998 175.79 15.7023 177.01 15.7023C178.264 15.7023 179.321 15.9256 180.18 16.3723C181.056 16.819 181.717 17.4719 182.164 18.3309C182.628 19.1899 182.86 20.2379 182.86 21.4749V29H179.355L179.097 27.2991C178.891 27.8833 178.401 28.3729 177.628 28.7681C176.872 29.146 176.013 29.335 175.051 29.335ZM176.443 26.3971C177.199 26.3971 177.817 26.2168 178.298 25.856C178.779 25.478 179.02 24.9196 179.02 24.1809V23.485L177.01 23.6654C176.151 23.7342 175.541 23.8802 175.18 24.1035C174.836 24.3097 174.665 24.619 174.665 25.0313C174.665 25.4952 174.811 25.8388 175.103 26.0621C175.395 26.2855 175.841 26.3971 176.443 26.3971ZM184.778 24.9282H188.541C188.575 25.3749 188.756 25.7271 189.082 25.9848C189.409 26.2425 189.872 26.3714 190.474 26.3714C191.092 26.3714 191.548 26.2683 191.84 26.0621C192.132 25.856 192.278 25.5897 192.278 25.2632C192.278 25.0742 192.2 24.8853 192.046 24.6963C191.908 24.5073 191.599 24.3613 191.118 24.2582L188.747 23.7428C187.562 23.485 186.677 23.0727 186.093 22.5058C185.509 21.9216 185.217 21.0626 185.217 19.9287C185.217 19.0353 185.448 18.2793 185.912 17.6608C186.393 17.0252 187.038 16.5441 187.845 16.2177C188.653 15.8741 189.572 15.7023 190.603 15.7023C191.599 15.7023 192.475 15.8827 193.231 16.2435C194.004 16.6042 194.606 17.1111 195.035 17.7639C195.465 18.4168 195.679 19.1813 195.679 20.0575H191.917C191.917 19.6108 191.788 19.2586 191.53 19.0009C191.273 18.726 190.903 18.5886 190.422 18.5886C189.976 18.5886 189.615 18.7003 189.34 18.9236C189.082 19.1298 188.953 19.4047 188.953 19.7483C188.953 20.2981 189.417 20.676 190.345 20.8822L192.742 21.3976C193.807 21.621 194.614 22.0075 195.164 22.5573C195.731 23.0899 196.014 23.8716 196.014 24.9024C196.014 25.813 195.774 26.6033 195.293 27.2734C194.812 27.9434 194.142 28.4588 193.283 28.8196C192.424 29.1632 191.436 29.335 190.319 29.335C188.618 29.335 187.27 28.9313 186.273 28.1238C185.277 27.2991 184.778 26.2339 184.778 24.9282ZM197.16 24.9282H200.923C200.957 25.3749 201.138 25.7271 201.464 25.9848C201.791 26.2425 202.255 26.3714 202.856 26.3714C203.474 26.3714 203.93 26.2683 204.222 26.0621C204.514 25.856 204.66 25.5897 204.66 25.2632C204.66 25.0742 204.582 24.8853 204.428 24.6963C204.29 24.5073 203.981 24.3613 203.5 24.2582L201.129 23.7428C199.944 23.485 199.059 23.0727 198.475 22.5058C197.891 21.9216 197.599 21.0626 197.599 19.9287C197.599 19.0353 197.831 18.2793 198.294 17.6608C198.775 17.0252 199.42 16.5441 200.227 16.2177C201.035 15.8741 201.954 15.7023 202.985 15.7023C203.981 15.7023 204.857 15.8827 205.613 16.2435C206.386 16.6042 206.988 17.1111 207.417 17.7639C207.847 18.4168 208.062 19.1813 208.062 20.0575H204.299C204.299 19.6108 204.17 19.2586 203.912 19.0009C203.655 18.726 203.285 18.5886 202.804 18.5886C202.358 18.5886 201.997 18.7003 201.722 18.9236C201.464 19.1298 201.335 19.4047 201.335 19.7483C201.335 20.2981 201.799 20.676 202.727 20.8822L205.124 21.3976C206.189 21.621 206.996 22.0075 207.546 22.5573C208.113 23.0899 208.397 23.8716 208.397 24.9024C208.397 25.813 208.156 26.6033 207.675 27.2734C207.194 27.9434 206.524 28.4588 205.665 28.8196C204.806 29.1632 203.818 29.335 202.701 29.335C201 29.335 199.652 28.9313 198.655 28.1238C197.659 27.2991 197.16 26.2339 197.16 24.9282ZM213.005 29L208.856 16.1146H213.031L214.216 20.3152C214.371 20.865 214.517 21.4492 214.654 22.0677C214.792 22.6862 214.912 23.3218 215.015 23.9747C215.101 23.5108 215.178 23.1243 215.247 22.815C215.316 22.4886 215.402 22.145 215.505 21.7842C215.608 21.4062 215.754 20.9166 215.943 20.3152L217.257 16.1146H221.329L222.54 20.3152C222.574 20.4183 222.626 20.6331 222.695 20.9595C222.781 21.2688 222.875 21.621 222.978 22.0161C223.081 22.3941 223.167 22.7635 223.236 23.1243C223.322 23.485 223.382 23.7685 223.416 23.9747C223.468 23.6654 223.554 23.2531 223.674 22.7377C223.811 22.2051 223.94 21.7069 224.061 21.243C224.198 20.7791 224.284 20.4699 224.318 20.3152L225.555 16.1146H229.756L225.246 29H221.561L220.324 24.9024C219.997 23.8372 219.748 22.9439 219.576 22.2223C219.405 21.5007 219.302 21.0025 219.267 20.7276C219.216 21.0025 219.113 21.4406 218.958 22.0419C218.803 22.6432 218.52 23.6225 218.108 24.9798L216.871 29H213.005ZM230.16 22.5315C230.16 21.1743 230.46 19.9888 231.062 18.9752C231.68 17.9443 232.522 17.1454 233.587 16.5785C234.669 16.0115 235.898 15.728 237.272 15.728C238.647 15.728 239.867 16.0115 240.932 16.5785C241.997 17.1454 242.83 17.9443 243.432 18.9752C244.05 19.9888 244.359 21.1743 244.359 22.5315C244.359 23.8888 244.05 25.0742 243.432 26.0879C242.83 27.1016 241.997 27.8919 240.932 28.4588C239.867 29.0258 238.647 29.3092 237.272 29.3092C235.898 29.3092 234.669 29.0258 233.587 28.4588C232.522 27.8919 231.68 27.1016 231.062 26.0879C230.46 25.0742 230.16 23.8888 230.16 22.5315ZM234.154 22.5058C234.154 23.1586 234.283 23.7342 234.541 24.2324C234.816 24.7135 235.185 25.0914 235.649 25.3663C236.113 25.624 236.654 25.7529 237.272 25.7529C237.891 25.7529 238.432 25.624 238.896 25.3663C239.36 25.0914 239.721 24.7135 239.978 24.2324C240.236 23.7342 240.365 23.1586 240.365 22.5058C240.365 21.8529 240.236 21.2859 239.978 20.8049C239.721 20.3238 239.36 19.9544 238.896 19.6967C238.432 19.4219 237.891 19.2844 237.272 19.2844C236.654 19.2844 236.113 19.4219 235.649 19.6967C235.185 19.9544 234.816 20.3238 234.541 20.8049C234.283 21.2859 234.154 21.8529 234.154 22.5058ZM255.525 16.1146V19.8514H254.263C253.129 19.8514 252.235 20.1263 251.582 20.676C250.947 21.2258 250.629 22.1364 250.629 23.4077V29H246.66V16.1404H250.397L250.706 18.8978H250.345C250.517 18.0388 250.904 17.3344 251.505 16.7846C252.124 16.2177 252.957 15.9342 254.005 15.9342C254.245 15.9342 254.486 15.9514 254.726 15.9857C254.984 16.0029 255.25 16.0459 255.525 16.1146ZM262.567 29.335C261.33 29.335 260.256 29.0601 259.345 28.5104C258.435 27.9606 257.722 27.1875 257.206 26.191C256.708 25.1773 256.459 23.9919 256.459 22.6346C256.459 21.2602 256.717 20.0575 257.232 19.0267C257.747 17.9787 258.478 17.1626 259.423 16.5785C260.385 15.9943 261.519 15.7023 262.824 15.7023C263.632 15.7023 264.379 15.8483 265.066 16.1404C265.771 16.4324 266.312 16.819 266.69 17.3001V9.56882H270.659V29H266.922L266.716 27.3507C266.372 27.9348 265.822 28.4159 265.066 28.7938C264.328 29.1546 263.494 29.335 262.567 29.335ZM263.52 25.7013C264.139 25.7013 264.68 25.5725 265.144 25.3148C265.625 25.0399 265.994 24.6619 266.252 24.1809C266.527 23.6826 266.664 23.1157 266.664 22.48C266.664 21.8271 266.527 21.2602 266.252 20.7791C265.994 20.2981 265.625 19.9287 265.144 19.671C264.68 19.3961 264.139 19.2586 263.52 19.2586C262.902 19.2586 262.36 19.3961 261.897 19.671C261.433 19.9459 261.072 20.3238 260.814 20.8049C260.574 21.2859 260.453 21.8443 260.453 22.48C260.453 23.1157 260.574 23.674 260.814 24.1551C261.072 24.6361 261.433 25.0141 261.897 25.289C262.36 25.5639 262.902 25.7013 263.52 25.7013ZM272.711 24.9282H276.474C276.508 25.3749 276.689 25.7271 277.015 25.9848C277.341 26.2425 277.805 26.3714 278.407 26.3714C279.025 26.3714 279.48 26.2683 279.772 26.0621C280.064 25.856 280.211 25.5897 280.211 25.2632C280.211 25.0742 280.133 24.8853 279.979 24.6963C279.841 24.5073 279.532 24.3613 279.051 24.2582L276.68 23.7428C275.494 23.485 274.61 23.0727 274.026 22.5058C273.441 21.9216 273.149 21.0626 273.149 19.9287C273.149 19.0353 273.381 18.2793 273.845 17.6608C274.326 17.0252 274.97 16.5441 275.778 16.2177C276.585 15.8741 277.505 15.7023 278.535 15.7023C279.532 15.7023 280.408 15.8827 281.164 16.2435C281.937 16.6042 282.538 17.1111 282.968 17.7639C283.398 18.4168 283.612 19.1813 283.612 20.0575H279.85C279.85 19.6108 279.721 19.2586 279.463 19.0009C279.205 18.726 278.836 18.5886 278.355 18.5886C277.908 18.5886 277.548 18.7003 277.273 18.9236C277.015 19.1298 276.886 19.4047 276.886 19.7483C276.886 20.2981 277.35 20.676 278.278 20.8822L280.674 21.3976C281.74 21.621 282.547 22.0075 283.097 22.5573C283.664 23.0899 283.947 23.8716 283.947 24.9024C283.947 25.813 283.707 26.6033 283.226 27.2734C282.745 27.9434 282.075 28.4588 281.216 28.8196C280.357 29.1632 279.369 29.335 278.252 29.335C276.551 29.335 275.202 28.9313 274.206 28.1238C273.209 27.2991 272.711 26.2339 272.711 24.9282Z" fill="#252525"/>
</svg>
