<svg width="33" height="32" viewBox="0 0 33 32" fill="none" xmlns="http://www.w3.org/2000/svg">
<path d="M16.1666 29.3335C17.6332 29.3335 18.8332 28.1335 18.8332 26.6668H13.4999C13.4999 27.3741 13.7809 28.0524 14.281 28.5524C14.7811 29.0525 15.4593 29.3335 16.1666 29.3335ZM24.1666 21.3335V14.6668C24.1666 10.5735 21.9799 7.14683 18.1666 6.24016V5.3335C18.1666 4.22683 17.2732 3.3335 16.1666 3.3335C15.0599 3.3335 14.1666 4.22683 14.1666 5.3335V6.24016C10.3399 7.14683 8.16657 10.5602 8.16657 14.6668V21.3335L6.44657 23.0535C5.60657 23.8935 6.19324 25.3335 7.37991 25.3335H24.9399C26.1266 25.3335 26.7266 23.8935 25.8866 23.0535L24.1666 21.3335Z" fill="#20934E"/>
</svg>
