<svg width="32" height="32" viewBox="0 0 32 32" fill="none" xmlns="http://www.w3.org/2000/svg">
<path fill-rule="evenodd" clip-rule="evenodd" d="M15.8424 3.42871C17.0694 3.42871 17.6835 3.42871 18.167 3.62732C18.4857 3.75809 18.7755 3.95037 19.0199 4.19318C19.2643 4.43599 19.4584 4.72457 19.5913 5.04244C19.7141 5.33382 19.7611 5.67356 19.7807 6.17009C19.7893 6.52878 19.8892 6.87936 20.071 7.1887C20.2527 7.49804 20.5104 7.75593 20.8195 7.938C21.1349 8.11346 21.4895 8.20642 21.8504 8.20824C22.2114 8.21007 22.5669 8.12071 22.8841 7.94846C23.3257 7.71587 23.6458 7.58782 23.9621 7.546C24.6539 7.45517 25.3536 7.64113 25.909 8.06344C26.3228 8.37969 26.6278 8.90334 27.237 9.94942L27.2444 9.96202C27.8585 11.0165 28.1643 11.5444 28.2335 12.0592C28.2786 12.3998 28.2558 12.746 28.1663 13.0777C28.0768 13.4094 27.9224 13.7201 27.7122 13.9918C27.5175 14.2426 27.2444 14.453 26.821 14.7183C26.1991 15.105 25.7992 15.7662 25.7992 16.4953C25.7992 17.2244 26.1991 17.8856 26.8223 18.2737C27.2444 18.5376 27.5175 18.748 27.7109 18.9989C27.9214 19.2705 28.0759 19.5811 28.1656 19.9129C28.2554 20.2446 28.2784 20.5908 28.2335 20.9314C28.1643 21.4476 27.8585 21.9742 27.2444 23.0286C26.6316 24.0831 26.3245 24.611 25.909 24.9272C25.355 25.3493 24.6546 25.5361 23.9621 25.4447C23.6458 25.4028 23.3257 25.2748 22.8841 25.0422C22.5671 24.8702 22.2118 24.781 21.8511 24.7828C21.4904 24.7846 21.1361 24.8774 20.8208 25.0527C20.1845 25.4172 19.8069 26.0915 19.7807 26.8206C19.7611 27.3171 19.7141 27.6568 19.5913 27.9482C19.3229 28.5901 18.8106 29.0991 18.167 29.3633C17.6835 29.562 17.0694 29.562 15.8424 29.562C14.6155 29.562 14.0013 29.562 13.5179 29.3633C12.8724 29.0981 12.3602 28.5885 12.0936 27.9482C11.9708 27.6568 11.9237 27.3171 11.9042 26.8206C11.8767 26.0915 11.5004 25.4185 10.8654 25.0527C10.55 24.8772 10.1953 24.7842 9.83443 24.7824C9.47351 24.7806 9.11798 24.87 8.80082 25.0422C8.35917 25.2748 8.03904 25.4028 7.72282 25.4447C7.03029 25.5348 6.32992 25.3493 5.77589 24.9272C5.36203 24.611 5.05706 24.0873 4.44782 23.0412L4.44048 23.0286C3.82635 21.9742 3.52059 21.4463 3.45134 20.9314C3.40626 20.5909 3.42912 20.2447 3.51861 19.913C3.6081 19.5813 3.76243 19.2706 3.9727 18.9989C4.16739 18.748 4.44048 18.5376 4.86384 18.2724C5.48581 17.8856 5.88565 17.2244 5.88565 16.4953C5.88565 15.7662 5.48581 15.105 4.86253 14.717C4.44048 14.453 4.16739 14.2426 3.974 13.9918C3.54803 13.4417 3.35987 12.7465 3.45134 12.0592C3.52059 11.5431 3.82635 11.0165 4.44048 9.96202C5.05331 8.90755 5.36037 8.37965 5.77589 8.06344C6.33132 7.64113 7.03102 7.45517 7.72282 7.546C8.03904 7.58782 8.35917 7.71587 8.80082 7.94846C9.11782 8.12048 9.47311 8.20971 9.83377 8.20788C10.1944 8.20606 10.5488 8.11323 10.864 7.938C11.1735 7.75609 11.4313 7.49827 11.6133 7.18892C11.7953 6.87956 11.8954 6.5289 11.9042 6.17009C11.9237 5.67486 11.9708 5.33382 12.0936 5.04244C12.362 4.40056 12.8743 3.89154 13.5179 3.62732C14.0013 3.42871 14.6155 3.42871 15.8424 3.42871ZM15.8425 20.4954C18.0678 20.4954 19.8731 18.7047 19.8731 16.4954C19.8731 14.2861 18.0691 12.4954 15.8425 12.4954C13.6158 12.4954 11.8118 14.2861 11.8118 16.4954C11.8118 18.7047 13.6158 20.4954 15.8425 20.4954Z" fill="#666666"/>
</svg>
