<svg width="33" height="32" viewBox="0 0 33 32" fill="none" xmlns="http://www.w3.org/2000/svg">
<path d="M19.1665 18.0002C19.6969 18.0002 20.2056 17.7895 20.5807 17.4144C20.9558 17.0393 21.1665 16.5306 21.1665 16.0002C21.1665 15.4697 20.9558 14.961 20.5807 14.5859C20.2056 14.2109 19.6969 14.0002 19.1665 14.0002C18.6361 14.0002 18.1274 14.2109 17.7523 14.5859C17.3772 14.961 17.1665 15.4697 17.1665 16.0002C17.1665 16.5306 17.3772 17.0393 17.7523 17.4144C18.1274 17.7895 18.6361 18.0002 19.1665 18.0002ZM3.1665 10.3335C3.1665 9.00741 3.69329 7.73564 4.63097 6.79796C5.56865 5.86028 6.84042 5.3335 8.1665 5.3335H24.8332C26.1593 5.3335 27.431 5.86028 28.3687 6.79796C29.3064 7.73564 29.8332 9.00741 29.8332 10.3335V21.6668C29.8332 22.9929 29.3064 24.2647 28.3687 25.2024C27.431 26.14 26.1593 26.6668 24.8332 26.6668H8.1665C6.84042 26.6668 5.56865 26.14 4.63097 25.2024C3.69329 24.2647 3.1665 22.9929 3.1665 21.6668V10.3335ZM8.1665 9.3335C7.90129 9.3335 7.64693 9.43885 7.4594 9.62639C7.27186 9.81393 7.1665 10.0683 7.1665 10.3335V21.6668C7.1665 21.932 7.27186 22.1864 7.4594 22.3739C7.64693 22.5615 7.90129 22.6668 8.1665 22.6668C8.43172 22.6668 8.68607 22.5615 8.87361 22.3739C9.06115 22.1864 9.1665 21.932 9.1665 21.6668V10.3335C9.1665 10.0683 9.06115 9.81393 8.87361 9.62639C8.68607 9.43885 8.43172 9.3335 8.1665 9.3335ZM15.5398 10.9602C15.4483 10.8619 15.3379 10.7831 15.2152 10.7285C15.0926 10.6738 14.9601 10.6444 14.8259 10.642C14.6916 10.6397 14.5582 10.6644 14.4337 10.7147C14.3092 10.765 14.1961 10.8398 14.1011 10.9348C14.0062 11.0297 13.9313 11.1428 13.881 11.2674C13.8307 11.3919 13.806 11.5253 13.8084 11.6595C13.8108 11.7938 13.8401 11.9262 13.8948 12.0489C13.9495 12.1715 14.0283 12.2819 14.1265 12.3735L15.7198 13.9682C15.3563 14.5835 15.1651 15.2854 15.1665 16.0002C15.1665 16.7415 15.3678 17.4362 15.7198 18.0322L14.1265 19.6268C14.0283 19.7184 13.9495 19.8288 13.8948 19.9514C13.8401 20.0741 13.8108 20.2065 13.8084 20.3408C13.806 20.4751 13.8307 20.6084 13.881 20.733C13.9313 20.8575 14.0062 20.9706 14.1011 21.0655C14.1961 21.1605 14.3092 21.2354 14.4337 21.2857C14.5582 21.336 14.6916 21.3607 14.8259 21.3583C14.9601 21.3559 15.0926 21.3265 15.2152 21.2719C15.3379 21.2172 15.4483 21.1384 15.5398 21.0402L17.1345 19.4468C17.7305 19.7988 18.4252 20.0002 19.1665 20.0002C19.9078 20.0002 20.6025 19.7988 21.1985 19.4468L22.7932 21.0402C22.8847 21.1384 22.9951 21.2172 23.1178 21.2719C23.2404 21.3265 23.3729 21.3559 23.5071 21.3583C23.6414 21.3607 23.7748 21.336 23.8993 21.2857C24.0238 21.2354 24.1369 21.1605 24.2319 21.0655C24.3268 20.9706 24.4017 20.8575 24.452 20.733C24.5023 20.6084 24.527 20.4751 24.5246 20.3408C24.5223 20.2065 24.4929 20.0741 24.4382 19.9514C24.3836 19.8288 24.3048 19.7184 24.2065 19.6268L22.6132 18.0322C22.9652 17.4362 23.1665 16.7415 23.1665 16.0002C23.1665 15.2588 22.9652 14.5642 22.6132 13.9682L24.2065 12.3735C24.3831 12.1839 24.4793 11.9332 24.4747 11.6741C24.4702 11.4151 24.3652 11.1679 24.182 10.9847C23.9988 10.8015 23.7516 10.6965 23.4925 10.6919C23.2335 10.6874 22.9827 10.7835 22.7932 10.9602L21.1985 12.5535C20.5831 12.19 19.8812 11.9989 19.1665 12.0002C18.4252 12.0002 17.7305 12.2015 17.1345 12.5535L15.5398 10.9602Z" fill="#666666"/>
</svg>
