<svg width="15" height="15" viewBox="0 0 15 15" fill="none" xmlns="http://www.w3.org/2000/svg">
<path d="M0.46967 13.1977C0.176777 13.4906 0.176777 13.9655 0.46967 14.2584C0.762563 14.5513 1.23744 14.5513 1.53033 14.2584L0.46967 13.1977ZM14.4779 1.00011C14.4779 0.585892 14.1421 0.250106 13.7279 0.250105L6.97792 0.250105C6.56371 0.250105 6.22792 0.585892 6.22792 1.00011C6.22792 1.41432 6.56371 1.75011 6.97792 1.75011L12.9779 1.7501L12.9779 7.75011C12.9779 8.16432 13.3137 8.50011 13.7279 8.50011C14.1421 8.50011 14.4779 8.16432 14.4779 7.75011L14.4779 1.00011ZM1.53033 14.2584L14.2583 1.53044L13.1976 0.469775L0.46967 13.1977L1.53033 14.2584Z" fill="#252525"/>
</svg>
