<svg width="24" height="24" viewBox="0 0 24 24" fill="none" xmlns="http://www.w3.org/2000/svg">
<path fill-rule="evenodd" clip-rule="evenodd" d="M6 15.0002H4C3.73478 15.0002 3.48043 14.8948 3.29289 14.7073C3.10536 14.5198 3 14.2654 3 14.0002C3 13.735 3.10536 13.4806 3.29289 13.2931C3.48043 13.1055 3.73478 13.0002 4 13.0002H6V11.6632C5.82641 11.7164 5.64163 11.7213 5.46546 11.6774C5.28928 11.6336 5.12838 11.5426 5 11.4142L3.586 10.0002C3.40384 9.81159 3.30305 9.55899 3.30533 9.29679C3.3076 9.03459 3.41277 8.78378 3.59818 8.59837C3.78359 8.41296 4.0344 8.30779 4.2966 8.30552C4.5588 8.30324 4.8114 8.40403 5 8.58619L6.136 9.72219C6.30597 8.94369 6.62913 8.20679 7.08666 7.5544C7.5442 6.90201 8.12695 6.34717 8.801 5.92219L7.586 4.70819C7.39836 4.52068 7.29289 4.26631 7.2928 4.00104C7.2927 3.73577 7.39799 3.48133 7.5855 3.29369C7.77301 3.10605 8.02738 3.00058 8.29265 3.00049C8.55792 3.00039 8.81236 3.10568 9 3.29319L10.823 5.11519C11.6 4.96052 12.4 4.96052 13.177 5.11519L15 3.29319C15.1886 3.11103 15.4412 3.01024 15.7034 3.01252C15.9656 3.0148 16.2164 3.11996 16.4018 3.30537C16.5872 3.49078 16.6924 3.74159 16.6947 4.00379C16.697 4.26599 16.5962 4.51859 16.414 4.70719L15.2 5.92319C15.874 6.34817 16.4568 6.90301 16.9143 7.5554C17.3719 8.20779 17.695 8.94469 17.865 9.72319L19 8.58519C19.1876 8.39768 19.4421 8.29239 19.7074 8.29249C19.9726 8.29258 20.227 8.39805 20.4145 8.58569C20.602 8.77333 20.7073 9.02777 20.7072 9.29304C20.7071 9.55831 20.6016 9.81268 20.414 10.0002L19 11.4142C18.8717 11.5427 18.7109 11.6339 18.5347 11.678C18.3585 11.722 18.1737 11.7172 18 11.6642V13.0002H20C20.2652 13.0002 20.5196 13.1055 20.7071 13.2931C20.8946 13.4806 21 13.735 21 14.0002C21 14.2654 20.8946 14.5198 20.7071 14.7073C20.5196 14.8948 20.2652 15.0002 20 15.0002H18C18 15.4832 17.943 15.9532 17.835 16.4042C18.0234 16.3072 18.2378 16.2725 18.4472 16.3052C18.6566 16.3379 18.8502 16.4363 19 16.5862L20.414 18.0002C20.5962 18.1888 20.697 18.4414 20.6947 18.7036C20.6924 18.9658 20.5872 19.2166 20.4018 19.402C20.2164 19.5874 19.9656 19.6926 19.7034 19.6949C19.4412 19.6971 19.1886 19.5963 19 19.4142L17.586 18.0002C17.4937 17.9083 17.4203 17.7993 17.37 17.6792C16.872 18.6771 16.1057 19.5166 15.1572 20.1032C14.2086 20.6898 13.1153 21.0004 12 21.0002C10.8847 21.0004 9.7914 20.6898 8.84283 20.1032C7.89427 19.5166 7.12798 18.6771 6.63 17.6792C6.57965 17.7993 6.50627 17.9083 6.414 18.0002L5 19.4142C4.90775 19.5097 4.79741 19.5859 4.6754 19.6383C4.5534 19.6907 4.42218 19.7183 4.2894 19.7194C4.15662 19.7206 4.02494 19.6953 3.90205 19.645C3.77915 19.5947 3.6675 19.5205 3.57361 19.4266C3.47971 19.3327 3.40546 19.221 3.35518 19.0981C3.3049 18.9752 3.2796 18.8436 3.28075 18.7108C3.2819 18.578 3.30949 18.4468 3.3619 18.3248C3.41431 18.2028 3.49049 18.0924 3.586 18.0002L5 16.5862C5.14984 16.4363 5.34343 16.3379 5.55282 16.3052C5.76221 16.2725 5.97658 16.3072 6.165 16.4042C6.05501 15.9443 5.99963 15.473 6 15.0002ZM15.874 10.0002H8.126C8.34844 9.14195 8.84957 8.38187 9.55074 7.83926C10.2519 7.29666 11.1134 7.00225 12 7.00225C12.8866 7.00225 13.7481 7.29666 14.4493 7.83926C15.1504 8.38187 15.6516 9.14195 15.874 10.0002ZM15.874 16.0002C15.6516 16.8584 15.1504 17.6185 14.4493 18.1611C13.7481 18.7037 12.8866 18.9981 12 18.9981C11.1134 18.9981 10.2519 18.7037 9.55074 18.1611C8.84957 17.6185 8.34844 16.8584 8.126 16.0002H15.874Z" fill="#252525"/>
</svg>
