<svg width="90" height="24" viewBox="0 0 90 24" fill="none" xmlns="http://www.w3.org/2000/svg">
<path fill-rule="evenodd" clip-rule="evenodd" d="M16.1256 11.9999C16.1256 11.801 16.0465 11.6102 15.9059 11.4695C15.7652 11.3289 15.5745 11.2499 15.3756 11.2499H4.40256L6.36356 9.56987C6.43841 9.50579 6.49991 9.42759 6.54454 9.33974C6.58917 9.25188 6.61606 9.1561 6.62368 9.05786C6.63129 8.95961 6.61948 8.86083 6.58892 8.76715C6.55836 8.67347 6.50964 8.58673 6.44556 8.51187C6.38147 8.43702 6.30327 8.37552 6.21542 8.33089C6.12757 8.28626 6.03178 8.25937 5.93354 8.25176C5.8353 8.24414 5.73651 8.25595 5.64283 8.28651C5.54915 8.31708 5.46241 8.36579 5.38756 8.42987L1.88756 11.4299C1.80522 11.5003 1.73912 11.5877 1.69379 11.6861C1.64847 11.7845 1.625 11.8915 1.625 11.9999C1.625 12.1082 1.64847 12.2153 1.69379 12.3137C1.73912 12.4121 1.80522 12.4995 1.88756 12.5699L5.38756 15.5699C5.53873 15.6993 5.73513 15.7634 5.93354 15.748C6.13195 15.7326 6.31613 15.639 6.44556 15.4879C6.57498 15.3367 6.63905 15.1403 6.62368 14.9419C6.6083 14.7435 6.51473 14.5593 6.36356 14.4299L4.40356 12.7499H15.3756C15.5745 12.7499 15.7652 12.6709 15.9059 12.5302C16.0465 12.3896 16.1256 12.1988 16.1256 11.9999Z" fill="#E95353"/>
<path d="M9.375 8C9.375 8.702 9.375 9.053 9.544 9.306C9.61679 9.41478 9.71022 9.50821 9.819 9.581C10.072 9.75 10.423 9.75 11.125 9.75H15.375C15.9717 9.75 16.544 9.98705 16.966 10.409C17.3879 10.831 17.625 11.4033 17.625 12C17.625 12.5967 17.3879 13.169 16.966 13.591C16.544 14.0129 15.9717 14.25 15.375 14.25H11.125C10.423 14.25 10.072 14.25 9.819 14.418C9.71012 14.4911 9.61668 14.5849 9.544 14.694C9.375 14.947 9.375 15.298 9.375 16C9.375 18.828 9.375 20.243 10.254 21.121C11.132 22 12.546 22 15.374 22H16.374C19.204 22 20.617 22 21.496 21.121C22.375 20.243 22.375 18.828 22.375 16V8C22.375 5.172 22.375 3.757 21.496 2.879C20.617 2 19.203 2 16.375 2H15.375C12.546 2 11.132 2 10.254 2.879C9.375 3.757 9.375 5.172 9.375 8Z" fill="#E95353"/>
<path d="M33.2784 17.5V5.86364H35.0341V15.9886H40.3068V17.5H33.2784ZM45.7694 17.6761C44.9513 17.6761 44.2372 17.4886 43.6274 17.1136C43.0175 16.7386 42.5441 16.214 42.2069 15.5398C41.8698 14.8655 41.7013 14.0777 41.7013 13.1761C41.7013 12.2708 41.8698 11.4792 42.2069 10.8011C42.5441 10.1231 43.0175 9.59659 43.6274 9.22159C44.2372 8.84659 44.9513 8.65909 45.7694 8.65909C46.5876 8.65909 47.3016 8.84659 47.9115 9.22159C48.5213 9.59659 48.9948 10.1231 49.3319 10.8011C49.6691 11.4792 49.8376 12.2708 49.8376 13.1761C49.8376 14.0777 49.6691 14.8655 49.3319 15.5398C48.9948 16.214 48.5213 16.7386 47.9115 17.1136C47.3016 17.4886 46.5876 17.6761 45.7694 17.6761ZM45.7751 16.25C46.3054 16.25 46.7448 16.1098 47.0933 15.8295C47.4418 15.5492 47.6994 15.1761 47.866 14.7102C48.0365 14.2443 48.1217 13.7311 48.1217 13.1705C48.1217 12.6136 48.0365 12.1023 47.866 11.6364C47.6994 11.1667 47.4418 10.7898 47.0933 10.5057C46.7448 10.2216 46.3054 10.0795 45.7751 10.0795C45.241 10.0795 44.7978 10.2216 44.4456 10.5057C44.0971 10.7898 43.8376 11.1667 43.6672 11.6364C43.5005 12.1023 43.4172 12.6136 43.4172 13.1705C43.4172 13.7311 43.5005 14.2443 43.6672 14.7102C43.8376 15.1761 44.0971 15.5492 44.4456 15.8295C44.7978 16.1098 45.241 16.25 45.7751 16.25ZM55.313 20.9545C54.6198 20.9545 54.0232 20.8636 53.5232 20.6818C53.027 20.5 52.6217 20.2595 52.3073 19.9602C51.9929 19.661 51.7581 19.3333 51.6028 18.9773L53.063 18.375C53.1653 18.5417 53.3016 18.7178 53.4721 18.9034C53.6463 19.0928 53.8812 19.2538 54.1766 19.3864C54.4759 19.5189 54.8604 19.5852 55.3301 19.5852C55.974 19.5852 56.5062 19.428 56.9266 19.1136C57.3471 18.803 57.5573 18.3068 57.5573 17.625V15.9091H57.4494C57.3471 16.0947 57.1994 16.3011 57.0062 16.5284C56.8168 16.7557 56.5554 16.9527 56.2221 17.1193C55.8888 17.286 55.4551 17.3693 54.921 17.3693C54.2316 17.3693 53.6104 17.2083 53.0573 16.8864C52.5081 16.5606 52.0725 16.0814 51.7505 15.4489C51.4323 14.8125 51.2732 14.0303 51.2732 13.1023C51.2732 12.1742 51.4304 11.3788 51.7448 10.7159C52.063 10.053 52.4986 9.54545 53.0516 9.19318C53.6047 8.83712 54.2316 8.65909 54.9323 8.65909C55.474 8.65909 55.9115 8.75 56.2448 8.93182C56.5782 9.10985 56.8376 9.31818 57.0232 9.55682C57.2126 9.79545 57.3585 10.0057 57.4607 10.1875H57.5857V8.77273H59.2505V17.6932C59.2505 18.4432 59.0763 19.0587 58.7278 19.5398C58.3793 20.0208 57.9077 20.3769 57.313 20.608C56.7221 20.839 56.0554 20.9545 55.313 20.9545ZM55.296 15.9602C55.7846 15.9602 56.1975 15.8466 56.5346 15.6193C56.8755 15.3883 57.1331 15.0587 57.3073 14.6307C57.4854 14.1989 57.5744 13.6818 57.5744 13.0795C57.5744 12.4924 57.4873 11.9754 57.313 11.5284C57.1388 11.0814 56.8831 10.733 56.546 10.483C56.2088 10.2292 55.7922 10.1023 55.296 10.1023C54.7846 10.1023 54.3585 10.2348 54.0176 10.5C53.6766 10.7614 53.4191 11.1174 53.2448 11.5682C53.0744 12.0189 52.9891 12.5227 52.9891 13.0795C52.9891 13.6515 53.0763 14.1534 53.2505 14.5852C53.4248 15.017 53.6823 15.3542 54.0232 15.5966C54.3679 15.839 54.7922 15.9602 55.296 15.9602ZM69.2794 17.6761C68.4613 17.6761 67.7472 17.4886 67.1374 17.1136C66.5275 16.7386 66.0541 16.214 65.7169 15.5398C65.3798 14.8655 65.2113 14.0777 65.2113 13.1761C65.2113 12.2708 65.3798 11.4792 65.7169 10.8011C66.0541 10.1231 66.5275 9.59659 67.1374 9.22159C67.7472 8.84659 68.4613 8.65909 69.2794 8.65909C70.0976 8.65909 70.8116 8.84659 71.4215 9.22159C72.0313 9.59659 72.5048 10.1231 72.8419 10.8011C73.1791 11.4792 73.3476 12.2708 73.3476 13.1761C73.3476 14.0777 73.1791 14.8655 72.8419 15.5398C72.5048 16.214 72.0313 16.7386 71.4215 17.1136C70.8116 17.4886 70.0976 17.6761 69.2794 17.6761ZM69.2851 16.25C69.8154 16.25 70.2548 16.1098 70.6033 15.8295C70.9518 15.5492 71.2094 15.1761 71.376 14.7102C71.5465 14.2443 71.6317 13.7311 71.6317 13.1705C71.6317 12.6136 71.5465 12.1023 71.376 11.6364C71.2094 11.1667 70.9518 10.7898 70.6033 10.5057C70.2548 10.2216 69.8154 10.0795 69.2851 10.0795C68.751 10.0795 68.3078 10.2216 67.9556 10.5057C67.6071 10.7898 67.3476 11.1667 67.1772 11.6364C67.0105 12.1023 66.9272 12.6136 66.9272 13.1705C66.9272 13.7311 67.0105 14.2443 67.1772 14.7102C67.3476 15.1761 67.6071 15.5492 67.9556 15.8295C68.3078 16.1098 68.751 16.25 69.2851 16.25ZM80.6923 13.8807V8.77273H82.3969V17.5H80.7264V15.9886H80.6355C80.4348 16.4545 80.1128 16.8428 79.6696 17.1534C79.2302 17.4602 78.6829 17.6136 78.0276 17.6136C77.4669 17.6136 76.9707 17.4905 76.5389 17.2443C76.1109 16.9943 75.7738 16.625 75.5276 16.1364C75.2851 15.6477 75.1639 15.0436 75.1639 14.3239V8.77273H76.8628V14.1193C76.8628 14.714 77.0276 15.1875 77.3571 15.5398C77.6866 15.892 78.1147 16.0682 78.6412 16.0682C78.9594 16.0682 79.2757 15.9886 79.5901 15.8295C79.9082 15.6705 80.1715 15.4299 80.3798 15.108C80.5919 14.786 80.6961 14.3769 80.6923 13.8807ZM88.6734 8.77273V10.1364H83.9064V8.77273H88.6734ZM85.1848 6.68182H86.8836V14.9375C86.8836 15.267 86.9329 15.5152 87.0314 15.6818C87.1298 15.8447 87.2567 15.9564 87.412 16.017C87.5711 16.0739 87.7435 16.1023 87.9291 16.1023C88.0655 16.1023 88.1848 16.0928 88.287 16.0739C88.3893 16.0549 88.4689 16.0398 88.5257 16.0284L88.8325 17.4318C88.734 17.4697 88.5939 17.5076 88.412 17.5455C88.2302 17.5871 88.003 17.6098 87.7302 17.6136C87.2833 17.6212 86.8666 17.5417 86.4802 17.375C86.0939 17.2083 85.7814 16.9508 85.5427 16.6023C85.3041 16.2538 85.1848 15.8163 85.1848 15.2898V6.68182Z" fill="#E95353"/>
</svg>
