<svg width="22" height="20" viewBox="0 0 22 20" fill="none" xmlns="http://www.w3.org/2000/svg">
<path d="M5.7291 12.7485L5.07965 12.3774L7.5151 8.15596L8.16455 8.52708L10.2057 4.97828V0.733643H9.76499L0 17.6658L0.208753 18.0369L3.89672 15.903L5.7291 12.7485Z" fill="#252525"/>
<path d="M4.38377 16.7612L0.695801 18.8951L0.927748 19.2663H6.28574L7.7702 18.4081H14.056L15.5404 19.2663H20.4577L20.6897 18.8951L17.0017 16.7612H4.38377Z" fill="#252525"/>
<path d="M11.1797 0.733643V4.97828L13.128 8.34152L13.7775 7.9704L16.2129 12.1918L15.5635 12.563L17.4887 15.903L21.1766 18.0369L21.3854 17.6658L11.6204 0.733643H11.1797Z" fill="#252525"/>
</svg>
