<svg width="24" height="24" viewBox="0 0 24 24" fill="none" xmlns="http://www.w3.org/2000/svg">
<path fill-rule="evenodd" clip-rule="evenodd" d="M11.8816 2.57129C12.8018 2.57129 13.2624 2.57129 13.625 2.72025C13.864 2.81832 14.0814 2.96254 14.2647 3.14464C14.448 3.32675 14.5936 3.54319 14.6932 3.78158C14.7853 4.00012 14.8206 4.25492 14.8353 4.62732C14.8417 4.89634 14.9167 5.15927 15.053 5.39128C15.1893 5.62329 15.3825 5.8167 15.6144 5.95326C15.8509 6.08485 16.1169 6.15457 16.3876 6.15594C16.6583 6.15731 16.9249 6.09029 17.1628 5.9611C17.494 5.78666 17.7341 5.69062 17.9713 5.65926C18.4902 5.59113 19.0149 5.7306 19.4315 6.04734C19.7419 6.28452 19.9706 6.67726 20.4275 7.4618L20.4331 7.47127C20.8937 8.26213 21.123 8.65805 21.1749 9.04417C21.2087 9.29961 21.1916 9.55923 21.1245 9.80801C21.0573 10.0568 20.9416 10.2898 20.7839 10.4936C20.6379 10.6817 20.4331 10.8395 20.1155 11.0385C19.6491 11.3285 19.3492 11.8244 19.3492 12.3713C19.3492 12.9181 19.6491 13.414 20.1165 13.705C20.4331 13.903 20.6379 14.0608 20.7829 14.2489C20.9408 14.4526 21.0567 14.6856 21.124 14.9344C21.1913 15.1832 21.2086 15.4428 21.1749 15.6983C21.123 16.0854 20.8937 16.4804 20.4331 17.2712C19.9734 18.0621 19.7431 18.458 19.4315 18.6952C19.016 19.0117 18.4907 19.1519 17.9713 19.0833C17.7341 19.0519 17.494 18.9559 17.1628 18.7814C16.925 18.6524 16.6586 18.5855 16.3881 18.5868C16.1176 18.5882 15.8518 18.6578 15.6154 18.7893C15.1381 19.0627 14.8549 19.5683 14.8353 20.1152C14.8206 20.4876 14.7853 20.7424 14.6932 20.9609C14.4919 21.4423 14.1077 21.8241 13.625 22.0223C13.2624 22.1712 12.8018 22.1712 11.8816 22.1712C10.9614 22.1712 10.5008 22.1712 10.1382 22.0223C9.65405 21.8233 9.26989 21.4411 9.06997 20.9609C8.97785 20.7424 8.94257 20.4876 8.92787 20.1152C8.90729 19.5683 8.62505 19.0637 8.14877 18.7893C7.91222 18.6577 7.64626 18.5879 7.37558 18.5866C7.10489 18.5852 6.83824 18.6522 6.60037 18.7814C6.26913 18.9559 6.02903 19.0519 5.79187 19.0833C5.27247 19.1509 4.7472 19.0117 4.33168 18.6952C4.02128 18.458 3.79255 18.0652 3.33562 17.2807L3.33012 17.2712C2.86952 16.4804 2.6402 16.0845 2.58826 15.6983C2.55445 15.4429 2.5716 15.1833 2.63871 14.9345C2.70583 14.6857 2.82158 14.4527 2.97928 14.2489C3.1253 14.0608 3.33012 13.903 3.64764 13.704C4.11412 13.414 4.414 12.9181 4.414 12.3713C4.414 11.8244 4.11412 11.3285 3.64666 11.0375C3.33012 10.8395 3.1253 10.6817 2.98026 10.4936C2.66078 10.081 2.51966 9.55964 2.58826 9.04417C2.6402 8.65707 2.86952 8.26213 3.33012 7.47127C3.78974 6.68041 4.02004 6.2845 4.33168 6.04734C4.74825 5.7306 5.27302 5.59113 5.79187 5.65926C6.02903 5.69062 6.26913 5.78666 6.60037 5.9611C6.83812 6.09012 7.10459 6.15704 7.37509 6.15567C7.64558 6.1543 7.91136 6.08468 8.14779 5.95326C8.37984 5.81683 8.57327 5.62346 8.70977 5.39144C8.84627 5.15943 8.92133 4.89643 8.92787 4.62732C8.94257 4.2559 8.97785 4.00012 9.06997 3.78158C9.27124 3.30018 9.65547 2.91841 10.1382 2.72025C10.5008 2.57129 10.9614 2.57129 11.8816 2.57129ZM11.8816 15.3713C13.5506 15.3713 14.9046 14.0283 14.9046 12.3713C14.9046 10.7143 13.5516 9.3713 11.8816 9.3713C10.2116 9.3713 8.85861 10.7143 8.85861 12.3713C8.85861 14.0283 10.2116 15.3713 11.8816 15.3713Z" fill="#252525"/>
</svg>
