<svg width="50" height="50" viewBox="0 0 50 50" fill="none" xmlns="http://www.w3.org/2000/svg">
<circle cx="25" cy="25" r="25" fill="#D9D9D9"/>
<path d="M16.1186 30V19.8182H17.6548V24.6804H17.7791L22.0497 19.8182H23.9837L19.8771 24.402L23.9986 30H22.1491L18.858 25.451L17.6548 26.8331V30H16.1186ZM28.6416 30H25.3455V19.8182H28.7461C29.7437 19.8182 30.6005 20.022 31.3164 20.4297C32.0323 20.834 32.5808 21.4157 32.962 22.1747C33.3464 22.9304 33.5387 23.8369 33.5387 24.8942C33.5387 25.9548 33.3448 26.8662 32.957 27.6286C32.5725 28.3909 32.0157 28.9775 31.2865 29.3885C30.5574 29.7962 29.6757 30 28.6416 30ZM26.8817 28.6577H28.5571C29.3327 28.6577 29.9773 28.5118 30.4911 28.2202C31.0048 27.9252 31.3893 27.4993 31.6445 26.9425C31.8997 26.3823 32.0273 25.6996 32.0273 24.8942C32.0273 24.0954 31.8997 23.4176 31.6445 22.8608C31.3926 22.304 31.0164 21.8814 30.5159 21.593C30.0155 21.3047 29.394 21.1605 28.6516 21.1605H26.8817V28.6577Z" fill="#202020"/>
</svg>
